<svg xmlns="http://www.w3.org/2000/svg" viewBox="0 0 48 48">
  <path fill="#DCFCE7" d="M6 26c0-9.9 8.1-18 18-18s18 8.1 18 18-8.1 18-18 18S6 35.9 6 26Z"/>
  <path fill="#059669" d="M11 17.5c0-1.4 1.1-2.5 2.5-2.5h17c1.4 0 2.5 1.1 2.5 2.5V27h2.7l-2.1-5.3h2.9c.9 0 1.7.5 2.1 1.3l3 6.2c.3.5.4 1.1.4 1.7V35h-4.3a5 5 0 0 0-9.4 0h-8.6a5 5 0 0 0-9.4 0H8v-4.5h3V17.5Z"/>
  <path fill="#ECFDF5" d="M15 19h14v7H15z"/>
  <path fill="#065F46" d="M17 39a3 3 0 1 0 0-6 3 3 0 0 0 0 6Zm16 0a3 3 0 1 0 0-6 3 3 0 0 0 0 6Z"/>
  <path stroke="#10B981" stroke-linecap="round" stroke-width="2.2" d="M10 42h28"/>
</svg>
